<?xml version="1.0" encoding="UTF-8"?>
<svg id="Ebene_1" data-name="Ebene 1" xmlns="http://www.w3.org/2000/svg" viewBox="0 0 2000 2000">
  <path d="M1535.12,1869.54c-10.12-7.56-34.07-11.88-32.87-26.21.86-10.29,26.16-25.65,34.52-34.83,69.88-76.71,50.36-169.67-24.21-233.23-27.94-23.82-114.97-63.45-118.3-97.8-1.77-18.29,20.51-29.45,4.98-53.42-10.81-16.67-37.07-9.74-46.04-14.87-2.14-1.23-22.23-36.17-25.66-42.19-76.56-134.3-131.3-358.01-138.71-512.29-1.74-36.25-4.98-105.29,21.04-132.43,28.09-29.29,175.58-47.56,127.17-106.44-24.9-30.28-131.11-39.77-189.2-46.21,95.4-50.72,160.36-151.11,160.36-266.69C1308.21,136.22,1173.06,1.07,1006.34,1.07c-.89,0-1.78.03-2.67.04-.89,0-1.78-.04-2.67-.04-166.71,0-301.86,135.15-301.86,301.86,0,115.58,64.97,215.97,160.36,266.69-58.1,6.45-164.31,15.93-189.2,46.21-48.41,58.88,99.08,77.15,127.17,106.44,26.03,27.14,22.78,96.18,21.04,132.43-7.4,154.28-62.15,377.99-138.71,512.29-3.43,6.02-23.52,40.96-25.66,42.19-8.97,5.13-35.24-1.81-46.04,14.87-15.53,23.97,6.75,35.13,4.98,53.42-3.32,34.35-90.35,73.99-118.3,97.8-74.57,63.56-94.1,156.52-24.21,233.23,8.36,9.17,33.66,24.54,34.52,34.83,1.2,14.34-22.75,18.65-32.87,26.21-38.15,28.52-49.59,102.69,1.63,123.7,176.41,3.03,353.13,1.94,529.82,1.3,176.7.64,353.41,1.72,529.82-1.3,51.22-21.01,39.78-95.18,1.63-123.7Z"/>
</svg>